<?xml version="1.0" standalone="no"?>
<!DOCTYPE svg PUBLIC "-//W3C//DTD SVG 20010904//EN"
 "http://www.w3.org/TR/2001/REC-SVG-20010904/DTD/svg10.dtd">
<svg version="1.0" xmlns="http://www.w3.org/2000/svg"
 width="78.000000pt" height="81.000000pt" viewBox="0 0 78.000000 81.000000"
 preserveAspectRatio="xMidYMid meet">

<g transform="translate(0.000000,81.000000) scale(0.100000,-0.100000)"
fill="#000000" stroke="none">
<path d="M10 405 l0 -395 380 0 380 0 0 395 0 395 -380 0 -380 0 0 -395z m740
0 l0 -365 -355 0 -355 0 0 365 0 365 355 0 355 0 0 -365z"/>
<path d="M102 473 c3 -103 5 -118 21 -121 15 -3 17 7 17 107 l0 111 230 0
c237 0 274 -5 285 -42 8 -22 -3 -60 -15 -53 -5 3 -11 1 -15 -5 -4 -6 -73 -10
-180 -10 -111 0 -176 -4 -180 -11 -4 -5 -4 -21 -1 -35 l6 -24 200 0 c110 0
200 2 200 4 0 2 3 11 6 20 5 13 -2 16 -32 17 -23 1 -30 3 -17 6 53 10 70 87
28 128 l-24 25 -266 0 -266 0 3 -117z"/>
<path d="M170 450 c0 -60 4 -100 10 -100 6 0 10 7 10 16 0 8 5 12 11 8 8 -4 8
-9 0 -17 -6 -6 -11 -32 -11 -57 0 -80 1 -80 263 -80 145 0 227 4 227 10 0 6
-78 10 -212 10 -231 0 -261 6 -266 50 -5 53 1 55 224 58 143 2 204 0 199 -7
-4 -7 -70 -11 -186 -11 l-179 0 0 -35 0 -35 210 0 c133 0 210 4 210 10 0 6
-72 10 -195 10 -167 0 -195 2 -195 15 0 13 25 15 169 15 155 0 170 2 195 21
57 45 44 48 -206 51 l-231 3 -10 28 c-7 23 -6 33 7 45 14 14 45 18 196 20
l180 3 0 35 0 34 -210 0 -210 0 0 -100z m225 63 c-147 -3 -161 -5 -182 -25
l-23 -21 0 26 0 27 183 -2 182 -2 -160 -3z"/>
</g>
</svg>
